<?xml version="1.0" encoding="UTF-8"?>
<svg id="Layer_1" data-name="Layer 1" xmlns="http://www.w3.org/2000/svg" version="1.1" viewBox="0 0 400 500">
  <defs>
    <style>
      .cls-1 {
        fill: #231f20;
        stroke-width: 0px;
      }
    </style>
  </defs>
  <path class="cls-1" d="M19.6,163.7c-1.6,38.3,14.5,79.9,48.6,97.5,29.1,15,68.2,11.8,89.6,36.6,15.8,18.3,15.4,45,15.7,69.1.3,24.2,3.9,51.7,23.7,65.5,15.3,10.7,35.8,9.7,54,5.7,45.2-9.9,86.7-36.8,112.9-74.9s36.3-87.2,25.7-132.2-42.3-84.9-84.5-103.9c-26-11.7-55-15.6-80.7-27.8-25.9-12.3-47.3-32.5-72.6-46.1-25.3-13.6-56.5-18.9-81.5-2.7S21.2,125.4,19.6,163.7Z"/>
</svg>