<?xml version="1.0" encoding="UTF-8"?>
<svg id="Layer_1" data-name="Layer 1" xmlns="http://www.w3.org/2000/svg" version="1.1" viewBox="0 0 400 300">
  <defs>
    <style>
      .cls-1 {
        fill: #231f20;
        stroke-width: 0px;
      }
    </style>
  </defs>
  <path class="cls-1" d="M7.8,114c12.5-45.6,58.8-80.3,106.6-83.8,47-3.8,83.2,29.6,123.7,50.5,12.4,6.5,25.3,11.7,38.8,15.6,24.2,7.3,51.5,10.1,75,18.5,46.1,15.4,54,60.3,31.3,99.6-10.1,17.3-25.9,32-45,38.8-38.3,13.5-75.3-7.9-112.2-21.5-13.4-5.1-27-9.4-41.1-12-13.2-2.5-26.7-3.5-40.1-3.6-29.6-.5-58.7,3.4-86.2-5.6C16.8,197.5-3.5,155,7.8,114.2v-.2Z"/>
</svg>