<?xml version="1.0" encoding="UTF-8"?>
<svg id="Layer_1" data-name="Layer 1" xmlns="http://www.w3.org/2000/svg" version="1.1" viewBox="0 0 800 800">
  <defs>
    <style>
      .cls-1 {
        fill: #231f20;
        stroke-width: 0px;
      }
    </style>
  </defs>
  <path class="cls-1" d="M42.4,241.8c-16.6,67.2-8.5,170.6,64.9,185.2,157.2,31.3,102.1,172.2,117,218.8,11.4,37.3,52.4,49.8,89.2,51.6,95,4.6,78.3-116.8,123.7-100.3,104.9,38.2,13.7,171.1,124,171.1s127.2-65.7,161.5-152.3,54-135.4,34.3-187.9c-24.3-65.6-227.4-31.2-285.1-55.3-56.2-23.4,124-179.9.8-293.8-125.6-116.1-155.1,12.6-292.6,66.5-46.9,18.4-125.8,47.7-137.8,96.2v.2Z"/>
</svg>