<?xml version="1.0" encoding="UTF-8"?>
<svg id="Layer_1" data-name="Layer 1" xmlns="http://www.w3.org/2000/svg" version="1.1" viewBox="0 0 500 400">
  <defs>
    <style>
      .cls-1 {
        fill: #231f20;
        stroke-width: 0px;
      }
    </style>
  </defs>
  <path class="cls-1" d="M59.3,148.5c21.9,11.7,53.8,20.5,56.1,47.9,2.7,30.4-19.1,87.8,48.8,87.8s37.2-53.5,88.7-53.5-35.4,54.9-35.4,94.4,7.7,56.8,123.9,56.8,121.5-148.4,121.5-191-31.7-66.5-62.8-66.5c-54.2,0-86.6,29-125.6,16.9-54-16.9-16.2-109.7-60.7-109.7s-45.2,23.5-74.5,23.5S118.9,8,74.8,8c-27.2-1.6-40.2,66.7-37.2,90.5v.2s2.7,39.7,21.8,49.8h0Z"/>
</svg>